<svg width="16" height="16" viewBox="0 0 16 16" fill="none" xmlns="http://www.w3.org/2000/svg">
<path d="M6.6665 16H5.33317V14.6667V13.3333V12V10.6667V9.33333V8H6.6665H7.99984V9.33333V10.6667V12V13.3333V14.6667V16H6.6665ZM7.99984 8V6.66667V5.33333H9.33317H10.6665V6.66667V8H9.33317H7.99984ZM10.6665 5.33333V4V2.66667H9.33317H7.99984H6.6665H5.33317V4V5.33333H3.99984H2.6665V4V2.66667V1.33333V0H3.99984H5.33317H6.6665H7.99984H9.33317H10.6665H11.9998H13.3332V1.33333V2.66667V4V5.33333H11.9998H10.6665Z" fill="#FC493B"/>
</svg>
