<svg width="16" height="16" viewBox="0 0 16 16" fill="none" xmlns="http://www.w3.org/2000/svg">
<g clip-path="url(#clip0_15_3075)">
<path fill-rule="evenodd" clip-rule="evenodd" d="M2.76607 0.271186V0.542373H2.49488H2.22369V0.786441V1.03051H2.00674H1.78979V7.2678V13.5051H2.00674H2.22369V14.7525V16H7.97285H13.722V14.7525V13.5051H13.9661H14.2101V7.2678V1.03051H13.9661H13.722V0.786441V0.542373H13.4779H13.2339V0.271186V0H7.99996H2.76607V0.271186ZM13.2339 0.786441V1.03051H13.4779H13.722V7.2678V13.5051H7.97285H2.22369V7.2678V1.03051H2.49488H2.76607V0.786441V0.542373H7.99996H13.2339V0.786441ZM3.74234 1.76271V2.00678H3.49827H3.2542V5.26102V8.51525H3.49827H3.74234V8.75932V9.00339H7.99996H12.2576V8.75932V8.51525H12.4745H12.6915V5.26102V2.00678H12.4745H12.2576V1.76271V1.51864H7.99996H3.74234V1.76271ZM12.2576 5.26102V8.51525H7.99996H3.74234V5.26102V2.00678H7.99996H12.2576V5.26102ZM5.74912 4.01356V4.50169H5.99318H6.23725V4.01356V3.52542H5.99318H5.74912V4.01356ZM7.7559 4.52881V5.5322H7.51183H7.26776V5.74915V5.9661H7.7559H8.24403V4.74576V3.52542H7.99996H7.7559V4.52881ZM9.27454 4.01356V4.50169H9.49149H9.70844V4.01356V3.52542H9.49149H9.27454V4.01356ZM6.23725 6.75254V6.99661H6.48132H6.72539V7.24068V7.48475H7.72878H8.73217V7.24068V6.99661H9.00335H9.27454V6.75254V6.50847H9.00335H8.73217V6.75254V6.99661H7.72878H6.72539V6.75254V6.50847H6.48132H6.23725V6.75254ZM9.27454 11.2542V11.4983H10.7661H12.2576V11.2542V11.0102H10.7661H9.27454V11.2542ZM3.2542 11.7424V11.9864H3.74234H4.23047V11.7424V11.4983H3.74234H3.2542V11.7424ZM13.2339 14.7525V15.5119H7.99996H2.76607V14.7525V13.9932H7.99996H13.2339V14.7525Z" fill="#0004FF"/>
</g>
<defs>
<clipPath id="clip0_15_3075">
<rect width="16" height="16" fill="white"/>
</clipPath>
</defs>
</svg>
